<svg width="496" height="496" viewBox="0 0 496 496" fill="none" xmlns="http://www.w3.org/2000/svg">
<path d="M22.0007 203.009C22.0007 211.61 25.0379 217.681 29.9547 220.574L48.0405 231.083C43.1237 228.192 40.0865 222.192 40.0141 213.517C40.0141 201.81 45.5095 188.508 53.6801 178.319C54.4035 161.332 66.2613 141.236 80.9397 132.78C83.8317 131.118 86.6518 129.964 89.327 129.455C89.2547 128.951 89.2546 128.517 89.2546 127.938C89.1827 108.061 103.21 83.9199 120.491 73.946C136.109 64.9109 149.124 70.5473 151.511 86.4469C154.33 83.0517 157.44 80.0165 160.693 77.56C175.01 84.8586 192.291 93.4597 192.363 94.1126C196.774 91.582 200.968 90.3504 204.655 90.3504C207.331 90.3504 209.717 91.0033 211.814 92.1574L190.411 80.1612C190.99 81.5341 179.276 77.4859 167.201 73.5825C169.732 72.3543 172.262 71.6308 174.576 71.2708L174.432 71.1967C174.721 71.1261 174.938 71.1967 175.155 71.1261C175.444 71.1261 175.661 71.1261 175.95 71.052C177.324 70.9814 178.698 71.052 179.927 71.2708C180.216 71.2708 180.433 71.4155 180.65 71.4861C181.879 71.7049 182.964 72.1391 183.976 72.6438L166.324 62.3508C161.335 59.4603 154.394 59.8944 146.801 64.2319C144.199 65.7496 141.74 67.6271 139.354 69.7236L124.748 61.2672C119.036 57.9426 111.155 58.3767 102.405 63.4342C85.1245 73.4082 71.1694 97.623 71.2414 117.5C71.2414 118.008 71.2414 118.442 71.3138 118.947C68.6385 119.526 65.8184 120.609 62.8541 122.272C48.2481 130.728 36.3179 150.821 35.5946 167.881C27.4236 178 21.9283 191.373 22.0007 203.009V203.009Z" fill="#E0E4ED"/>
<path d="M120.493 73.9162C103.185 83.9052 89.2185 108.088 89.2749 127.969C89.2763 128.481 89.2776 128.959 89.3385 129.435C86.6639 129.989 83.8422 131.104 80.9329 132.783C66.2972 141.23 54.4004 161.315 53.6756 178.333C45.4974 188.485 40.0044 201.834 40.0375 213.497C40.0869 230.888 52.3874 237.861 67.498 229.14L192.539 156.973C207.65 148.252 219.841 127.143 219.792 109.752C219.742 92.3596 207.472 85.3694 192.361 94.0904C192.268 92.9485 192.354 91.6353 192.35 90.3402C192.301 72.9828 179.971 66.0267 164.86 74.7478C160.021 77.5406 155.453 81.6112 151.512 86.4468C149.148 70.5626 136.138 64.8867 120.493 73.9162V73.9162Z" fill="white"/>
<path d="M162.613 339.123V347.791C162.613 350.999 164.754 354.212 168.929 356.563L230.371 392.306C238.613 397.119 252.207 397.119 260.557 392.306L338.376 347.362C342.551 345.011 344.692 341.798 344.585 338.59V329.812C344.585 333.025 342.551 336.233 338.376 338.694L260.557 383.529C252.1 388.451 238.613 388.346 230.264 383.529L168.821 347.895C164.647 345.44 162.613 342.226 162.613 339.123Z" fill="#485776"/>
<path d="M168.889 330.306C160.483 335.157 160.506 343.006 168.857 347.858L230.306 383.555C238.591 388.368 252.146 388.407 260.552 383.555L338.326 338.668C346.664 333.856 346.709 325.968 338.425 321.155L276.976 285.457C268.625 280.606 255.002 280.606 246.664 285.418L168.889 330.306Z" fill="#B8C2D6"/>
<path d="M231.046 276.516L231.301 360.699L286.409 328.894L286.154 244.71L231.046 276.516Z" fill="#485776"/>
<path d="M221.03 270.732L221.324 354.885L231.33 360.669L231.036 276.516L286.169 244.745L276.163 238.86L221.03 270.732Z" fill="#293858"/>
<path d="M106.347 197.411C106.328 190.842 110.963 182.823 116.634 179.553L382.39 26.1682C388.109 22.8696 392.727 25.5521 392.746 32.1209L393.191 203.241L106.793 368.531L106.347 197.411Z" fill="#6BB8FF"/>
<path d="M393.191 203.241L393.247 225.972C393.266 232.494 388.678 240.484 382.959 243.783L117.204 397.168C111.532 400.438 106.868 397.784 106.849 391.272L106.793 368.531L393.191 203.241Z" fill="#E8EEFB"/>
<path d="M257.552 290.389C253.359 292.809 250.007 298.665 250.02 303.431C250.034 308.247 253.408 310.171 257.601 307.751C261.751 305.356 265.147 299.524 265.133 294.709C265.12 289.942 261.702 287.994 257.552 290.389Z" fill="#485776"/>
<path d="M94.7222 190.634C94.6499 184.093 99.3103 176.084 104.99 172.804L370.712 19.4288C373.624 17.751 376.172 17.6089 378.066 18.6989L389.684 25.4667C387.864 24.3767 385.242 24.5188 382.402 26.1966L116.608 179.572C110.927 182.852 106.34 190.861 106.34 197.411L106.793 368.531L95.1749 361.829L94.7222 190.634Z" fill="#293858"/>
<path d="M106.793 368.531L106.85 391.29C106.85 394.494 108.015 396.75 109.835 397.84L98.2175 391.072C96.397 390.058 95.2318 387.726 95.2318 384.523L95.175 361.829L106.793 368.531Z" fill="#9DA9C1"/>
<path d="M360.008 126.092C360.008 130.852 361.689 134.212 364.41 135.814L378.938 144.255C376.216 142.655 374.535 139.334 374.495 134.532C374.495 128.053 377.537 120.69 382.059 115.051C382.459 105.649 389.023 94.5258 397.147 89.8453C398.748 88.9253 400.308 88.2865 401.789 88.0052C401.749 87.7259 401.749 87.4856 401.749 87.1653C401.709 76.1635 409.473 62.8019 419.038 57.2815C427.683 52.2807 434.886 55.4003 436.207 64.2005C437.768 62.3213 439.489 60.6414 441.289 59.2818C449.214 63.3215 458.778 68.0821 458.818 68.4435C461.26 67.0429 463.581 66.3611 465.622 66.3611C467.103 66.3611 468.424 66.7225 469.584 67.3612L457.738 60.7215C458.058 61.4814 451.575 59.2408 444.892 57.0803C446.292 56.4005 447.693 56 448.974 55.8007L448.894 55.7597C449.054 55.7206 449.174 55.7597 449.294 55.7206C449.454 55.7206 449.574 55.7206 449.734 55.6796C450.495 55.6405 451.255 55.6796 451.935 55.8007C452.095 55.8007 452.215 55.8809 452.335 55.9199C453.016 56.041 453.616 56.2813 454.176 56.5606L439.889 48.2389C437.127 46.6391 433.285 46.8793 429.083 49.2801C427.643 50.1201 426.282 51.1593 424.961 52.3197L416.877 47.6392C413.716 45.7991 409.353 46.0393 404.511 48.8386C394.946 54.3591 387.222 67.7617 387.262 78.7635C387.262 79.0447 387.262 79.285 387.302 79.5643C385.821 79.8847 384.26 80.4844 382.619 81.4045C374.535 86.085 367.932 97.2059 367.532 106.649C363.009 112.249 359.968 119.651 360.008 126.092V126.092Z" fill="#E0E4ED"/>
<path d="M419.039 57.2649C409.459 62.7937 401.729 76.1786 401.76 87.1824C401.761 87.466 401.762 87.7303 401.796 87.9939C400.315 88.3006 398.753 88.9178 397.143 89.8472C389.043 94.5225 382.458 105.639 382.057 115.058C377.53 120.677 374.49 128.066 374.508 134.521C374.535 144.147 381.344 148.006 389.707 143.179L458.916 103.236C467.28 98.4085 474.027 86.7252 474 77.0997C473.973 67.4731 467.181 63.604 458.817 68.431C458.766 67.799 458.813 67.0722 458.811 66.3554C458.784 56.7483 451.96 52.8982 443.596 57.7252C440.918 59.271 438.39 61.524 436.208 64.2005C434.899 55.4087 427.698 52.2672 419.039 57.2649V57.2649Z" fill="white"/>
<path d="M80.2797 299.647C77.6776 301.149 75.5775 304.802 75.586 307.791L76.0593 474.663C76.0678 477.652 78.1817 478.855 80.7837 477.354L161.136 430.979C163.738 429.477 165.838 425.841 165.829 422.852L165.356 255.981C165.347 252.991 163.234 251.771 160.632 253.272L80.2797 299.647Z" fill="#E8EEFB"/>
<path d="M77.2812 307.669L77.7003 455.295L164.063 405.389L163.728 257.758L135.501 274.054V281.121L106.347 297.958V290.892L77.2812 307.669Z" fill="#6BB8FF"/>
<path d="M72.6132 295.193L152.965 248.819C154.271 248.065 155.454 247.997 156.309 248.494L163.976 252.948C163.12 252.45 161.937 252.519 160.632 253.272L80.2795 299.647C77.6776 301.149 75.5774 304.802 75.5859 307.791L76.0592 474.663C76.0634 476.148 76.5871 477.192 77.4322 477.683L69.7658 473.229C68.9209 472.738 68.397 471.694 68.3928 470.209L67.9197 303.337C67.911 300.348 70.0112 296.696 72.6132 295.193V295.193Z" fill="#293858"/>
<path d="M131.234 278.769C130.909 278.208 130.191 278.018 129.634 278.341L110.163 289.578C109.603 289.901 109.41 290.617 109.734 291.177C109.951 291.552 110.345 291.762 110.749 291.762C110.948 291.762 111.15 291.712 111.334 291.605L130.805 280.368C131.365 280.045 131.557 279.329 131.234 278.769V278.769Z" fill="#485776"/>
<path d="M123.237 433.551C126.242 431.816 128.685 433.208 128.695 436.66C128.705 440.112 126.277 444.315 123.272 446.049C120.276 447.778 117.833 446.387 117.823 442.934C117.813 439.482 120.241 435.28 123.237 433.551V433.551Z" fill="#485776"/>
</svg>
