<svg
  width="157"
  height="40"
  viewBox="0 0 157 40"
  fill="none"
  xmlns="http://www.w3.org/2000/svg"
>
  <path
    fillRule="evenodd"
    clipRule="evenodd"
    d="M60.5941 21.4538C59.3302 21.4538 56.5278 21.5632 56.5278 23.3654C56.5278 24.3491 57.5718 24.8135 58.4782 24.8135C60.0996 24.8135 61.6102 23.9664 61.6102 22.328V21.4538H60.5941ZM61.6102 25.6054H61.5552C60.6486 27.025 59.0005 27.5982 57.3244 27.5982C54.8248 27.5982 52.5718 26.1786 52.5718 23.5017C52.5718 18.9143 58.176 18.8327 61.6102 18.8327C61.6102 17.3852 60.4017 16.4566 58.9728 16.4566C57.6266 16.4566 56.4999 17.058 55.6213 18.0404L53.4236 15.8015C54.9342 14.3816 57.1323 13.6718 59.3024 13.6718C64.1102 13.6718 65.4013 16.102 65.4013 20.5259V27.2713H61.6102V25.6054Z"
    fill="#131f37"
  />
  <path
    fillRule="evenodd"
    clipRule="evenodd"
    d="M67.2954 13.9993H71.2513V15.8014H71.3062C71.856 14.7635 73.202 13.6716 75.2077 13.6716C79.3835 13.6716 80.1535 16.4023 80.1535 19.9521V27.2712H76.0317V20.7711C76.0317 19.2426 76.0047 17.2762 73.8888 17.2762C71.7459 17.2762 71.4165 18.942 71.4165 20.6626V27.2712H67.2954V13.9993Z"
    fill="#131f37"
  />
  <path
    fillRule="evenodd"
    clipRule="evenodd"
    d="M89.1316 29.4275C88.0334 32.2402 87.4009 33.8244 83.4723 33.8244C82.4291 33.8244 81.3848 33.6607 80.3958 33.3324L80.9454 29.9738C81.5771 30.2471 82.1819 30.3839 82.8686 30.3839C84.7368 30.3839 85.0391 29.5917 85.6156 28.1443L85.9181 27.3796L80.0659 13.9992H84.5164L87.9504 22.7653H88.0055L90.9447 13.9992H95.1756L89.1316 29.4275Z"
    fill="#131f37"
  />
  <path
    fillRule="evenodd"
    clipRule="evenodd"
    d="M95.7676 13.9993H99.7241V15.8014H99.7791C100.329 14.7635 101.675 13.6716 103.68 13.6716C107.856 13.6716 108.625 16.4023 108.625 19.9521V27.2712H104.504V20.7711C104.504 19.2426 104.477 17.2762 102.361 17.2762C100.219 17.2762 99.8892 18.942 99.8892 20.6626V27.2712H95.7676V13.9993Z"
    fill="#131f37"
  />
  <path
    fillRule="evenodd"
    clipRule="evenodd"
    d="M110.655 27.2712H114.777V13.9992H110.655V27.2712Z"
    fill="#131f37"
  />
  <path
    fillRule="evenodd"
    clipRule="evenodd"
    d="M116.884 13.9993H120.841V15.8014H120.896C121.445 14.7635 122.791 13.6716 124.796 13.6716C128.972 13.6716 129.742 16.4023 129.742 19.9521V27.2712H125.621V20.7711C125.621 19.2426 125.593 17.2762 123.478 17.2762C121.335 17.2762 121.006 18.942 121.006 20.6626V27.2712H116.884V13.9993Z"
    fill="#131f37"
  />
  <path
    fillRule="evenodd"
    clipRule="evenodd"
    d="M140.71 19.1331C140.738 17.7678 139.666 16.6207 138.182 16.6207C136.369 16.6207 135.38 17.8494 135.27 19.1331H140.71ZM144.199 24.977C142.881 26.6428 140.71 27.598 138.566 27.598C134.446 27.598 131.149 24.8681 131.149 20.6348C131.149 16.4023 134.446 13.6716 138.566 13.6716C142.414 13.6716 144.83 16.4023 144.83 20.6348V21.9183H135.27C135.6 23.4747 136.781 24.4849 138.375 24.4849C139.721 24.4849 140.628 23.8027 141.315 22.8737L144.199 24.977Z"
    fill="#131f37"
  />
  <path
    fillRule="evenodd"
    clipRule="evenodd"
    d="M153.695 17.9041C153.09 17.1668 152.293 16.7847 151.304 16.7847C150.617 16.7847 149.794 17.0852 149.794 17.8767C149.794 19.8426 156.744 18.1773 156.744 23.229C156.744 26.6154 153.446 27.598 150.59 27.598C148.722 27.598 146.661 27.1339 145.344 25.7959L147.843 23.0381C148.612 23.9664 149.518 24.4849 150.754 24.4849C151.688 24.4849 152.623 24.2401 152.623 23.5296C152.623 21.3995 145.672 23.2022 145.672 18.1499C145.672 15.037 148.474 13.6718 151.277 13.6718C153.034 13.6718 154.985 14.1085 156.222 15.4193L153.695 17.9041Z"
    fill="#131f37"
  />
  <path
    fillRule="evenodd"
    clipRule="evenodd"
    d="M20.0655 39.9957C31.1474 39.9957 40.131 31.0424 40.131 19.9978C40.131 8.95334 31.1474 0 20.0655 0C8.98364 0 0 8.95334 0 19.9978C0 31.0424 8.98364 39.9957 20.0655 39.9957Z"
    fill="#E4833E"
  />
  <path
    fillRule="evenodd"
    clipRule="evenodd"
    d="M16.0525 19.9697C16.0525 20.7888 16.1732 21.5785 16.3957 22.3247H19.7101C19.3503 21.6169 19.1465 20.8175 19.1465 19.9697C19.1465 17.0801 21.5034 14.7386 24.4128 14.7386C27.322 14.7386 29.6806 17.0801 29.6806 19.9697C29.6806 22.86 27.322 25.2021 24.4128 25.2021H14.4281C12.4321 25.2021 10.8146 23.5958 10.8146 21.6133C10.8146 19.6312 12.4321 18.0246 14.4281 18.0246C14.5583 16.2915 15.6439 14.8928 15.6439 14.8928H14.4281C10.7075 14.8928 7.69183 17.8883 7.69183 21.5835C7.69183 25.2795 10.7075 28.2744 14.4281 28.2744H24.4128C25.9463 28.2744 27.382 27.8632 28.6173 27.1475C31.1019 25.7079 32.7737 23.0333 32.7737 19.9697C32.7737 15.3839 29.0305 11.6655 24.4128 11.6655C19.7956 11.6655 16.0525 15.3839 16.0525 19.9697Z"
    fill="white"
  />
</svg>