<svg width="496" height="496" viewBox="0 0 496 496" fill="none" xmlns="http://www.w3.org/2000/svg">
<path d="M408.33 377.911C407.09 378.626 405.563 378.624 404.325 377.906L326.578 332.799C325.16 331.976 325.163 329.928 326.584 329.109V329.109C327.244 328.728 328.058 328.729 328.718 329.112L404.353 372.993C405.59 373.711 407.118 373.713 408.358 372.999L431.822 359.472C433.062 358.758 434.589 358.76 435.827 359.478L492.868 392.57C494.262 393.379 494.26 395.392 492.865 396.198V396.198C492.215 396.573 491.414 396.572 490.765 396.195L435.874 364.347C434.636 363.628 433.109 363.626 431.869 364.341L408.33 377.911Z" fill="#293858"/>
<path d="M310.674 341.968C309.255 341.145 309.258 339.097 310.679 338.278V338.278C311.339 337.897 312.153 337.898 312.813 338.281L402.965 390.581C404.203 391.299 405.73 391.301 406.969 390.586L425.791 379.739C427.031 379.024 428.558 379.027 429.796 379.745L472.264 404.382C473.682 405.205 473.68 407.254 472.259 408.072V408.072C471.598 408.453 470.785 408.452 470.125 408.069L429.694 384.613C428.456 383.895 426.929 383.893 425.689 384.608L406.867 395.455C405.627 396.169 404.1 396.167 402.863 395.449L310.674 341.968Z" fill="#293858"/>
<path d="M295.783 346.863C296.432 346.49 297.231 346.491 297.878 346.866L434.576 426.173C435.969 426.981 435.966 428.994 434.571 429.798V429.798C433.922 430.172 433.122 430.171 432.475 429.795L295.777 350.487C294.385 349.679 294.388 347.667 295.783 346.863V346.863Z" fill="#293858"/>
<path d="M364.957 414.802C367.622 413.265 367.627 409.42 364.966 407.876L280.919 359.117C279.501 358.295 279.504 356.246 280.924 355.427V355.427C281.585 355.046 282.398 355.047 283.058 355.43L373.386 407.835C376.048 409.379 376.042 413.225 373.376 414.761L362.533 421.01C359.867 422.546 359.861 426.391 362.523 427.935L396.849 447.85C398.267 448.672 398.264 450.721 396.844 451.54V451.54C396.183 451.921 395.369 451.92 394.71 451.537L354.101 427.98C351.44 426.436 351.445 422.591 354.111 421.055L364.957 414.802Z" fill="#293858"/>
<path d="M265.033 368.209C263.641 367.401 263.643 365.389 265.038 364.585V364.585C265.687 364.211 266.486 364.212 267.134 364.588L343.039 408.623C345.701 410.167 345.695 414.011 343.03 415.548L327.466 424.52C324.801 426.057 324.796 429.902 327.457 431.446L376.283 459.772C377.676 460.58 377.673 462.592 376.278 463.396V463.396C375.629 463.77 374.83 463.769 374.182 463.393L319.038 431.401C316.377 429.857 316.382 426.013 319.047 424.476L334.611 415.503C337.276 413.966 337.282 410.121 334.62 408.578L265.033 368.209Z" fill="#293858"/>
<path d="M88.6702 263.277C89.9101 262.562 91.4374 262.564 92.6754 263.283L170.422 308.389C171.84 309.212 171.837 311.261 170.416 312.08V312.08C169.756 312.461 168.942 312.459 168.282 312.077L92.6474 268.195C91.4095 267.477 89.8823 267.475 88.6424 268.19L65.1781 281.715C63.9382 282.43 62.411 282.428 61.1732 281.71L4.1317 248.617C2.7382 247.809 2.74039 245.796 4.13564 244.99V244.99C4.78527 244.615 5.58581 244.616 6.23461 244.993L61.1256 276.842C62.3635 277.56 63.8909 277.562 65.1308 276.847L88.6702 263.277Z" fill="#293858"/>
<path d="M186.326 299.22C187.744 300.043 187.741 302.092 186.321 302.91V302.91C185.66 303.291 184.847 303.29 184.188 302.907L94.0352 250.607C92.7974 249.889 91.2704 249.887 90.0306 250.601L71.2086 261.448C69.9689 262.163 68.4419 262.161 67.2042 261.443L24.7358 236.806C23.3177 235.984 23.3205 233.935 24.7408 233.116V233.116C25.4015 232.735 26.2153 232.736 26.8749 233.119L67.3062 256.575C68.544 257.293 70.071 257.295 71.3108 256.581L90.1328 245.734C91.3725 245.019 92.8995 245.021 94.1373 245.739L186.326 299.22Z" fill="#293858"/>
<path d="M201.217 294.325C200.568 294.699 199.769 294.697 199.121 294.322L62.4241 215.014C61.0313 214.206 61.0345 212.194 62.4298 211.39V211.39C63.0784 211.016 63.8773 211.018 64.5248 211.393L201.222 290.7C202.615 291.508 202.612 293.521 201.217 294.325V294.325Z" fill="#293858"/>
<path d="M132.043 226.387C129.378 227.924 129.373 231.768 132.034 233.312L216.081 282.071C217.499 282.894 217.496 284.942 216.076 285.761V285.761C215.415 286.141 214.602 286.14 213.942 285.758L123.614 233.352C120.952 231.808 120.958 227.963 123.624 226.427L134.467 220.178C137.133 218.641 137.139 214.796 134.477 213.252L100.151 193.338C98.7331 192.515 98.7361 190.466 100.157 189.648V189.648C100.817 189.267 101.63 189.268 102.29 189.651L142.899 213.209C145.56 214.752 145.555 218.597 142.889 220.134L132.043 226.387Z" fill="#293858"/>
<path d="M235.099 274.796L230.913 277.207L147.978 229.095L175.527 213.214L117.586 179.599L121.772 177.188L183.945 213.258L156.397 229.14L235.099 274.796Z" fill="#4C5671"/>
<path d="M88.6702 377.911C89.9101 378.626 91.4374 378.624 92.6753 377.906L170.422 332.799C171.84 331.976 171.837 329.928 170.416 329.109V329.109C169.756 328.728 168.942 328.729 168.282 329.112L92.6474 372.993C91.4096 373.711 89.8823 373.713 88.6424 372.999L65.1781 359.472C63.9382 358.758 62.411 358.76 61.1731 359.478L4.13169 392.57C2.73805 393.379 2.74006 395.392 4.1353 396.198V396.198C4.78513 396.573 5.586 396.572 6.23505 396.195L61.1256 364.347C62.3635 363.628 63.8909 363.626 65.1308 364.341L88.6702 377.911Z" fill="#293858"/>
<path d="M186.326 341.968C187.744 341.145 187.742 339.097 186.321 338.278V338.278C185.661 337.897 184.847 337.898 184.187 338.281L94.0352 390.581C92.7974 391.299 91.2704 391.301 90.0306 390.586L71.2087 379.739C69.9689 379.024 68.4419 379.027 67.2042 379.745L24.7357 404.382C23.3176 405.205 23.3204 407.254 24.7408 408.072V408.072C25.4015 408.453 26.2153 408.452 26.875 408.069L67.3062 384.613C68.544 383.895 70.071 383.893 71.3108 384.608L90.1328 395.455C91.3725 396.169 92.8995 396.167 94.1373 395.449L186.326 341.968Z" fill="#293858"/>
<path d="M201.217 346.863C200.568 346.49 199.769 346.491 199.122 346.866L62.4241 426.173C61.0312 426.981 61.0341 428.994 62.4294 429.798V429.798C63.0783 430.172 63.8775 430.171 64.5252 429.795L201.222 350.487C202.615 349.679 202.612 347.667 201.217 346.863V346.863Z" fill="#293858"/>
<path d="M132.043 414.802C129.378 413.265 129.373 409.42 132.034 407.876L216.081 359.117C217.499 358.295 217.496 356.246 216.076 355.427V355.427C215.415 355.046 214.601 355.047 213.942 355.43L123.614 407.835C120.952 409.379 120.958 413.225 123.624 414.761L134.467 421.01C137.133 422.546 137.139 426.391 134.477 427.935L100.151 447.85C98.733 448.672 98.7358 450.721 100.156 451.54V451.54C100.817 451.921 101.631 451.92 102.29 451.537L142.898 427.98C145.56 426.436 145.555 422.591 142.889 421.055L132.043 414.802Z" fill="#293858"/>
<path d="M231.967 368.209C233.36 367.401 233.357 365.389 231.962 364.585V364.585C231.313 364.211 230.514 364.212 229.866 364.588L153.961 408.623C151.299 410.167 151.305 414.011 153.97 415.548L169.534 424.52C172.2 426.057 172.205 429.902 169.544 431.446L120.718 459.771C119.325 460.58 119.328 462.592 120.723 463.396V463.396C121.372 463.77 122.171 463.769 122.819 463.393L177.962 431.401C180.623 429.857 180.618 426.013 177.953 424.476L162.389 415.503C159.724 413.966 159.719 410.121 162.38 408.578L231.967 368.209Z" fill="#293858"/>
<path d="M408.33 263.277C407.09 262.562 405.563 262.564 404.325 263.283L326.578 308.389C325.16 309.212 325.163 311.261 326.584 312.08V312.08C327.244 312.461 328.058 312.459 328.718 312.077L404.353 268.195C405.59 267.477 407.118 267.475 408.358 268.19L431.822 281.715C433.062 282.43 434.589 282.428 435.827 281.71L492.868 248.617C494.262 247.809 494.26 245.796 492.864 244.99V244.99C492.215 244.615 491.414 244.616 490.765 244.993L435.874 276.842C434.636 277.56 433.109 277.562 431.869 276.847L408.33 263.277Z" fill="#293858"/>
<path d="M310.674 299.22C309.256 300.043 309.259 302.092 310.679 302.91V302.91C311.339 303.291 312.153 303.29 312.812 302.907L402.965 250.607C404.203 249.889 405.73 249.887 406.969 250.601L425.791 261.448C427.031 262.163 428.558 262.161 429.796 261.443L472.264 236.806C473.682 235.984 473.679 233.935 472.259 233.116V233.116C471.598 232.735 470.785 232.736 470.125 233.119L429.694 256.575C428.456 257.293 426.929 257.295 425.689 256.581L406.867 245.734C405.627 245.019 404.1 245.021 402.863 245.739L310.674 299.22Z" fill="#293858"/>
<path d="M295.783 294.325C296.432 294.699 297.231 294.697 297.879 294.322L434.576 215.014C435.969 214.206 435.965 212.194 434.57 211.39V211.39C433.921 211.016 433.123 211.018 432.475 211.393L295.777 290.7C294.385 291.508 294.387 293.521 295.783 294.325V294.325Z" fill="#293858"/>
<path d="M364.957 226.387C367.622 227.924 367.627 231.768 364.966 233.312L280.919 282.071C279.501 282.894 279.504 284.942 280.924 285.761V285.761C281.585 286.141 282.398 286.14 283.058 285.758L373.386 233.352C376.048 231.808 376.042 227.963 373.376 226.427L362.533 220.178C359.867 218.641 359.861 214.796 362.523 213.252L396.849 193.338C398.267 192.515 398.264 190.466 396.843 189.648V189.648C396.183 189.267 395.37 189.268 394.71 189.651L354.101 213.209C351.44 214.752 351.445 218.597 354.111 220.134L364.957 226.387Z" fill="#293858"/>
<path d="M261.902 274.796L266.087 277.207L349.022 229.095L321.474 213.214L379.414 179.599L375.229 177.188L313.055 213.258L340.603 229.14L261.902 274.796Z" fill="#4C5671"/>
<path d="M109.721 356.004L235.418 428.932C242.364 432.938 253.653 432.938 260.6 428.932L387.273 356.004C394.111 351.993 394.221 345.49 387.273 341.373L261.576 268.445C254.629 264.434 243.341 264.434 236.393 268.445L109.829 341.478C102.774 345.489 102.774 351.993 109.721 356.004V356.004Z" fill="#0D1424"/>
<path d="M109.8 341.454L236.4 268.483C243.342 264.483 254.63 264.451 261.581 268.483L387.303 341.422C394.256 345.458 394.163 351.982 387.222 355.983L260.62 428.954C253.622 432.985 242.392 432.985 235.439 428.954L109.717 356.015C102.765 351.983 102.802 345.486 109.8 341.454V341.454ZM112.438 351.333L238.167 424.265C243.398 427.313 252.631 427.302 257.91 424.26L384.508 351.289C386.512 350.136 387.047 349.067 387.047 348.665C387.047 348.279 386.533 347.241 384.572 346.105L258.854 273.171C256.235 271.648 252.626 270.896 249.006 270.896C245.387 270.896 241.756 271.653 239.117 273.176L112.513 346.147C110.637 347.226 109.959 348.306 109.959 348.766C109.958 349.216 110.615 350.274 112.438 351.333Z" fill="#293858"/>
<path d="M104.53 275.841L104.62 329.236C104.62 331.904 106.313 334.484 109.789 336.53L235.534 409.395C242.485 413.487 253.714 413.487 260.666 409.395L387.302 336.444C390.777 334.398 392.56 331.817 392.56 329.146L392.472 275.664C392.472 278.331 390.69 280.998 387.214 283.048L260.577 355.999C253.625 360.004 242.397 360.004 235.445 355.999L109.7 283.048C106.224 280.997 104.53 278.422 104.53 275.841V275.841Z" fill="#0B76DA"/>
<path d="M109.8 268.482C102.802 272.516 102.766 279.01 109.718 283.043L235.44 355.981C242.393 360.015 253.623 360.015 260.621 355.981L387.222 283.011C394.163 279.011 394.256 272.484 387.303 268.45L261.581 195.512C254.629 191.479 243.342 191.511 236.4 195.512L109.8 268.482Z" fill="#6BB8FF"/>
<path opacity="0.25" d="M109.718 275.553L235.44 348.494C242.393 352.527 253.623 352.527 260.621 348.494L387.222 275.522C389.054 274.468 390.34 273.228 391.215 271.912C393.755 275.628 392.407 280.022 387.222 283.013L260.621 355.98C253.623 360.012 242.393 360.012 235.44 355.98L109.718 283.045C104.589 280.066 103.325 275.758 105.792 272.081C106.657 273.346 107.951 274.531 109.718 275.553Z" fill="white"/>
<path d="M202.7 360.579C203.322 360.937 203.704 361.601 203.701 362.319L203.646 377.062C203.641 378.598 201.978 379.554 200.648 378.787L197.565 377.011C196.943 376.652 196.561 375.988 196.563 375.27L196.618 360.527C196.624 358.991 198.287 358.035 199.617 358.802L202.7 360.579Z" fill="#0D1424"/>
<path d="M216.447 368.502C217.068 368.86 217.45 369.524 217.448 370.242L217.394 384.985C217.388 386.521 215.725 387.478 214.395 386.711L211.276 384.913C210.654 384.555 210.272 383.891 210.275 383.173L210.329 368.43C210.335 366.894 211.997 365.937 213.328 366.704L216.447 368.502Z" fill="#0D1424"/>
<path d="M230.157 376.405C230.779 376.763 231.161 377.427 231.158 378.145L231.104 392.887C231.098 394.423 229.436 395.38 228.106 394.613L225.023 392.836C224.401 392.478 224.019 391.814 224.021 391.096L224.076 376.354C224.082 374.818 225.745 373.861 227.075 374.628L230.157 376.405Z" fill="#0D1424"/>
<path d="M104.53 196.092L104.62 249.487C104.62 252.155 106.313 254.735 109.789 256.781L235.534 329.646C242.485 333.738 253.714 333.738 260.666 329.646L387.302 256.695C390.777 254.649 392.56 252.068 392.56 249.397L392.472 195.915C392.472 198.582 390.69 201.249 387.214 203.299L260.577 276.25C253.625 280.255 242.397 280.255 235.445 276.25L109.7 203.299C106.224 201.247 104.53 198.672 104.53 196.092V196.092Z" fill="#0B76DA"/>
<path d="M109.8 188.732C102.802 192.766 102.766 199.26 109.718 203.293L235.44 276.231C242.393 280.265 253.623 280.265 260.621 276.231L387.222 203.261C394.163 199.261 394.256 192.734 387.303 188.7L261.581 115.762C254.629 111.729 243.342 111.761 236.4 115.762L109.8 188.732Z" fill="#6BB8FF"/>
<path opacity="0.25" d="M109.718 195.803L235.44 268.744C242.393 272.777 253.623 272.777 260.621 268.744L387.222 195.772C389.054 194.718 390.34 193.478 391.215 192.162C393.755 195.877 392.407 200.272 387.222 203.263L260.621 276.23C253.623 280.262 242.393 280.262 235.44 276.23L109.718 203.295C104.589 200.316 103.325 196.008 105.792 192.331C106.657 193.597 107.951 194.781 109.718 195.803Z" fill="white"/>
<path d="M202.7 280.829C203.322 281.187 203.704 281.851 203.701 282.569L203.646 297.312C203.641 298.848 201.978 299.804 200.648 299.037L197.565 297.261C196.943 296.902 196.561 296.238 196.563 295.521L196.618 280.777C196.624 279.241 198.287 278.285 199.617 279.052L202.7 280.829Z" fill="#0D1424"/>
<path d="M216.447 288.752C217.068 289.11 217.45 289.774 217.448 290.492L217.394 305.235C217.388 306.771 215.725 307.728 214.395 306.961L211.276 305.163C210.654 304.805 210.272 304.141 210.275 303.423L210.329 288.68C210.335 287.144 211.997 286.187 213.328 286.954L216.447 288.752Z" fill="#0D1424"/>
<path d="M230.157 296.655C230.779 297.013 231.161 297.677 231.158 298.395L231.104 313.138C231.098 314.674 229.436 315.63 228.105 314.863L225.023 313.086C224.401 312.728 224.019 312.064 224.021 311.346L224.076 296.604C224.082 295.068 225.745 294.111 227.075 294.878L230.157 296.655Z" fill="#0D1424"/>
<path d="M104.53 116.342L104.62 169.737C104.62 172.405 106.313 174.985 109.789 177.031L235.534 249.896C242.485 253.988 253.714 253.988 260.666 249.896L387.302 176.945C390.777 174.899 392.56 172.318 392.56 169.647L392.472 116.165C392.472 118.832 390.69 121.499 387.214 123.549L260.577 196.5C253.625 200.505 242.397 200.505 235.445 196.5L109.7 123.549C106.224 121.498 104.53 118.922 104.53 116.342V116.342Z" fill="#0B76DA"/>
<path d="M109.8 108.983C102.802 113.016 102.766 119.511 109.718 123.544L235.44 196.482C242.393 200.516 253.623 200.517 260.621 196.482L387.222 123.512C394.163 119.512 394.256 112.985 387.303 108.951L261.581 36.0133C254.629 31.9796 243.342 32.0116 236.4 36.0133L109.8 108.983Z" fill="#6BB8FF"/>
<path opacity="0.33" d="M322.392 124.432C327.724 121.359 327.734 113.669 322.412 110.582L253.107 70.376C250.631 68.9399 247.577 68.9355 245.097 70.3647L174.623 110.983C169.292 114.056 169.281 121.747 174.604 124.834L243.915 165.04C246.39 166.476 249.445 166.48 251.924 165.051L322.392 124.432Z" fill="white"/>
<path opacity="0.25" d="M109.718 116.053L235.44 188.994C242.393 193.027 253.623 193.027 260.621 188.994L387.222 116.023C389.054 114.969 390.34 113.729 391.215 112.413C393.755 116.129 392.407 120.523 387.222 123.514L260.621 196.481C253.623 200.513 242.393 200.513 235.44 196.481L109.718 123.546C104.589 120.567 103.325 116.259 105.792 112.582C106.657 113.847 107.951 115.031 109.718 116.053Z" fill="white"/>
<path d="M202.7 201.079C203.322 201.437 203.704 202.101 203.701 202.819L203.646 217.563C203.641 219.098 201.978 220.055 200.647 219.288L197.565 217.511C196.943 217.152 196.561 216.488 196.563 215.771L196.618 201.028C196.624 199.492 198.286 198.535 199.617 199.302L202.7 201.079Z" fill="#0D1424"/>
<path d="M216.447 209.003C217.068 209.361 217.45 210.025 217.448 210.743L217.394 225.485C217.388 227.021 215.725 227.978 214.395 227.211L211.276 225.413C210.654 225.055 210.272 224.391 210.275 223.673L210.329 208.93C210.335 207.395 211.997 206.438 213.328 207.205L216.447 209.003Z" fill="#0D1424"/>
<path d="M230.157 216.906C230.779 217.264 231.161 217.928 231.158 218.646L231.104 233.389C231.098 234.924 229.436 235.881 228.106 235.114L225.023 233.337C224.401 232.979 224.019 232.315 224.021 231.597L224.076 216.854C224.082 215.318 225.745 214.362 227.075 215.129L230.157 216.906Z" fill="#0D1424"/>
<path opacity="0.5" d="M144.949 314.218C147.417 315.639 149.398 319.099 149.39 321.928C149.381 324.727 147.388 325.892 144.919 324.471C142.45 323.05 140.47 319.59 140.479 316.792C140.487 313.961 142.48 312.79 144.949 314.218Z" fill="#FFBAB4"/>
<path opacity="0.5" d="M131.703 306.582C134.171 308.003 136.181 311.481 136.174 314.312C136.166 317.11 134.143 318.258 131.674 316.836C129.236 315.434 127.225 311.955 127.233 309.157C127.24 306.327 129.264 305.174 131.703 306.582V306.582Z" fill="#FFE6B4"/>
<path d="M118.486 298.965C120.955 300.385 122.935 303.846 122.927 306.675C122.918 309.473 120.926 310.639 118.457 309.218C115.988 307.797 114.007 304.337 114.016 301.538C114.025 298.709 116.018 297.538 118.486 298.965Z" fill="#60EB98"/>
<path opacity="0.5" d="M144.949 234.468C147.417 235.888 149.398 239.349 149.39 242.178C149.381 244.977 147.388 246.142 144.919 244.72C142.45 243.3 140.47 239.84 140.479 237.041C140.487 234.212 142.48 233.04 144.949 234.468Z" fill="#FFBAB4"/>
<path d="M131.703 226.832C134.171 228.253 136.181 231.731 136.174 234.562C136.166 237.36 134.143 238.508 131.674 237.086C129.236 235.684 127.225 232.205 127.233 229.407C127.24 226.577 129.264 225.424 131.703 226.832V226.832Z" fill="#FFE6B4"/>
<path opacity="0.5" d="M118.486 219.216C120.955 220.637 122.935 224.097 122.927 226.926C122.918 229.724 120.926 230.89 118.457 229.469C115.988 228.048 114.007 224.588 114.016 221.79C114.025 218.959 116.018 217.788 118.486 219.216Z" fill="#60EB98"/>
<path opacity="0.5" d="M144.949 154.718C147.417 156.138 149.398 159.599 149.39 162.428C149.381 165.226 147.388 166.392 144.919 164.971C142.45 163.55 140.47 160.09 140.479 157.291C140.487 154.462 142.48 153.291 144.949 154.718Z" fill="#FFBAB4"/>
<path opacity="0.5" d="M131.703 147.082C134.171 148.503 136.181 151.981 136.174 154.812C136.166 157.61 134.143 158.758 131.674 157.336C129.236 155.934 127.225 152.455 127.233 149.657C127.24 146.827 129.264 145.674 131.703 147.082Z" fill="#FFE6B4"/>
<path d="M118.486 139.466C120.955 140.886 122.935 144.347 122.927 147.176C122.918 149.974 120.926 151.14 118.457 149.719C115.988 148.298 114.007 144.838 114.016 142.039C114.025 139.21 116.018 138.038 118.486 139.466Z" fill="#60EB98"/>
</svg>
